<svg xmlns="http://www.w3.org/2000/svg" xmlns:xlink="http://www.w3.org/1999/xlink" fill="none" version="1.1" width="27.198486328125" height="27.198486328125" viewBox="0 0 27.198486328125 27.198486328125"><g style="mix-blend-mode:passthrough"><g><path d="M8.10578e-7,8.93665C1.23161e-13,13.8722,4.00108,17.8733,8.93665,17.8733C13.8722,17.8733,17.8733,13.8722,17.8733,8.93665C17.8733,4.00107,13.8722,-8.10574e-7,8.93665,1.2316e-13C4.00107,1.2316e-13,-8.10578e-7,4.00108,1.23161e-13,8.93666C1.23161e-13,8.93666,8.10578e-7,8.93665,8.10578e-7,8.93665Z" fill="#8CF6FB" fill-opacity="1"/></g><g><path d="M9.130920810578171,12.433600810578172C9.130920810578171,12.433600810578172,3.3026508105781716,12.433600810578172,3.3026508105781716,12.433600810578172C1.4764908105781718,12.433600810578172,8.105781716949423e-7,10.957100810578172,8.105781716949423e-7,9.130920810578171C8.105781716949423e-7,9.130920810578171,8.105781716949423e-7,3.3026508105781716,8.105781716949423e-7,3.3026508105781716C8.105781716949423e-7,1.4764908105781718,1.4764908105781718,8.105781716949423e-7,3.3026808105781718,8.105781716949423e-7C3.3026808105781718,8.105781716949423e-7,9.130950810578172,8.105781716949423e-7,9.130950810578172,8.105781716949423e-7C10.957100810578172,8.105781716949423e-7,12.433600810578172,1.4764908105781718,12.433600810578172,3.3026808105781718C12.433600810578172,3.3026808105781718,12.433600810578172,9.130950810578172,12.433600810578172,9.130950810578172C12.433600810578172,10.957100810578172,10.957100810578172,12.433600810578172,9.130920810578171,12.433600810578172C9.130920810578171,12.433600810578172,9.130920810578171,12.433600810578172,9.130920810578171,12.433600810578172ZM3.3026808105781718,1.9427508105781717C2.564430810578172,1.9427508105781717,1.9427508105781717,2.564430810578172,1.9427508105781717,3.3026808105781718C1.9427508105781717,3.3026808105781718,1.9427508105781717,9.130950810578172,1.9427508105781717,9.130950810578172C1.9427508105781717,9.869180810578172,2.564430810578172,10.490800810578172,3.3026808105781718,10.490800810578172C3.3026808105781718,10.490800810578172,9.130950810578172,10.490800810578172,9.130950810578172,10.490800810578172C9.869190810578171,10.490800810578172,10.490900810578172,9.869170810578172,10.490900810578172,9.130920810578171C10.490900810578172,9.130920810578171,10.490900810578172,3.3026508105781716,10.490900810578172,3.3026508105781716C10.490800810578172,2.564430810578172,9.869180810578172,1.9427508105781717,9.130920810578171,1.9427508105781717C9.130920810578171,1.9427508105781717,3.3026508105781716,1.9427508105781717,3.3026508105781716,1.9427508105781717C3.3026508105781716,1.9427508105781717,3.3026808105781718,1.9427508105781717,3.3026808105781718,1.9427508105781717ZM23.895800810578173,12.433600810578172C23.895800810578173,12.433600810578172,18.06760081057817,12.433600810578172,18.06760081057817,12.433600810578172C16.24140081057817,12.433600810578172,14.764900810578172,10.957100810578172,14.764900810578172,9.130920810578171C14.764900810578172,9.130920810578171,14.764900810578172,3.3026508105781716,14.764900810578172,3.3026508105781716C14.764900810578172,1.4764908105781718,16.24140081057817,8.105781716949423e-7,18.06760081057817,8.105781716949423e-7C18.06760081057817,8.105781716949423e-7,23.895900810578173,8.105781716949423e-7,23.895900810578173,8.105781716949423e-7C25.722000810578173,8.105781716949423e-7,27.19850081057817,1.4764908105781718,27.19850081057817,3.3026808105781718C27.19850081057817,3.3026808105781718,27.19850081057817,9.130950810578172,27.19850081057817,9.130950810578172C27.19850081057817,10.957100810578172,25.722000810578173,12.433600810578172,23.895800810578173,12.433600810578172C23.895800810578173,12.433600810578172,23.895800810578173,12.433600810578172,23.895800810578173,12.433600810578172ZM18.06760081057817,1.9427508105781717C17.32930081057817,1.9427508105781717,16.70770081057817,2.564430810578172,16.70770081057817,3.3026808105781718C16.70770081057817,3.3026808105781718,16.70770081057817,9.130950810578172,16.70770081057817,9.130950810578172C16.70770081057817,9.869190810578171,17.32940081057817,10.490900810578172,18.06760081057817,10.490900810578172C18.06760081057817,10.490900810578172,23.895900810578173,10.490900810578172,23.895900810578173,10.490900810578172C24.634100810578172,10.490900810578172,25.255800810578172,9.869190810578171,25.255800810578172,9.130950810578172C25.255800810578172,9.130950810578172,25.255800810578172,3.3026808105781718,25.255800810578172,3.3026808105781718C25.255800810578172,2.564430810578172,24.634100810578172,1.9427508105781717,23.895800810578173,1.9427508105781717C23.895800810578173,1.9427508105781717,18.06760081057817,1.9427508105781717,18.06760081057817,1.9427508105781717C18.06760081057817,1.9427508105781717,18.06760081057817,1.9427508105781717,18.06760081057817,1.9427508105781717ZM9.130920810578171,27.19850081057817C9.130920810578171,27.19850081057817,3.3026508105781716,27.19850081057817,3.3026508105781716,27.19850081057817C1.4764908105781718,27.19850081057817,8.105781716949423e-7,25.722000810578173,8.105781716949423e-7,23.895800810578173C8.105781716949423e-7,23.895800810578173,8.105781716949423e-7,18.06760081057817,8.105781716949423e-7,18.06760081057817C8.105781716949423e-7,16.24140081057817,1.4764908105781718,14.764900810578172,3.3026808105781718,14.764900810578172C3.3026808105781718,14.764900810578172,9.130950810578172,14.764900810578172,9.130950810578172,14.764900810578172C10.957100810578172,14.764900810578172,12.433600810578172,16.24140081057817,12.433600810578172,18.06760081057817C12.433600810578172,18.06760081057817,12.433600810578172,23.895900810578173,12.433600810578172,23.895900810578173C12.433600810578172,25.722000810578173,10.957100810578172,27.19850081057817,9.130950810578172,27.19850081057817C9.130950810578172,27.19850081057817,9.130920810578171,27.19850081057817,9.130920810578171,27.19850081057817ZM3.3026508105781716,16.70770081057817C2.564430810578172,16.70770081057817,1.9427508105781717,17.32930081057817,1.9427508105781717,18.06760081057817C1.9427508105781717,18.06760081057817,1.9427508105781717,23.895900810578173,1.9427508105781717,23.895900810578173C1.9427508105781717,24.634100810578172,2.564430810578172,25.255800810578172,3.3026808105781718,25.255800810578172C3.3026808105781718,25.255800810578172,9.130950810578172,25.255800810578172,9.130950810578172,25.255800810578172C9.869190810578171,25.255800810578172,10.490900810578172,24.634100810578172,10.490900810578172,23.895800810578173C10.490900810578172,23.895800810578173,10.490900810578172,18.06760081057817,10.490900810578172,18.06760081057817C10.490900810578172,17.32930081057817,9.869190810578171,16.70760081057817,9.130950810578172,16.70760081057817C9.130950810578172,16.70760081057817,3.3026808105781718,16.70760081057817,3.3026808105781718,16.70760081057817C3.3026808105781718,16.70760081057817,3.3026508105781716,16.70770081057817,3.3026508105781716,16.70770081057817Z" fill="#3C2DCB" fill-opacity="1"/></g><g><path d="M20.981723095703124,27.198523095703123C17.562533095703124,27.198523095703123,14.764923095703125,24.400973095703122,14.764923095703125,20.981723095703124C14.764923095703125,17.562533095703124,17.562533095703124,14.764923095703125,20.981723095703124,14.764923095703125C24.400973095703122,14.764923095703125,27.198523095703123,17.562533095703124,27.198523095703123,20.981723095703124C27.198523095703123,24.400973095703122,24.400973095703122,27.198523095703123,20.981723095703124,27.198523095703123C20.981723095703124,27.198523095703123,20.981723095703124,27.198523095703123,20.981723095703124,27.198523095703123ZM20.981723095703124,16.707673095703125C18.611543095703126,16.707673095703125,16.707673095703125,18.611543095703126,16.707673095703125,20.981723095703124C16.707673095703125,23.351833095703125,18.611543095703126,25.255723095703125,20.981723095703124,25.255723095703125C23.351833095703125,25.255723095703125,25.255723095703125,23.351833095703125,25.255723095703125,20.981723095703124C25.255723095703125,18.611543095703126,23.351833095703125,16.707673095703125,20.981723095703124,16.707673095703125C20.981723095703124,16.707673095703125,20.981723095703124,16.707673095703125,20.981723095703124,16.707673095703125Z" fill="#D098FF" fill-opacity="1"/></g></g></svg>