<svg id="图层_1" data-name="图层 1" xmlns="http://www.w3.org/2000/svg" viewBox="0 0 100.62 100.62"><defs><style>.cls-1{fill:#e3b37a;}.cls-2{fill:#3b1808;}.cls-3{fill:#fff;}.cls-4{font-size:8.94px;font-family:SourceHanSansCN-Light-GBpc-EUC-H, Source Han Sans CN;}.cls-4,.cls-5{fill:#040000;}</style></defs><title>钟表</title><circle class="cls-1" cx="50.31" cy="50.31" r="49.81"/><path class="cls-2" d="M156,261.11a50.31,50.31,0,1,1,50.31-50.31A50.37,50.37,0,0,1,156,261.11Zm0-99.62a49.31,49.31,0,1,0,49.31,49.31A49.37,49.37,0,0,0,156,161.49Z" transform="translate(-105.69 -160.49)"/><circle class="cls-3" cx="50.31" cy="50.31" r="39.54"/><path class="cls-2" d="M156,250.84a40,40,0,1,1,40-40A40.08,40.08,0,0,1,156,250.84Zm0-79.09a39,39,0,1,0,39,39.05A39.09,39.09,0,0,0,156,171.75Z" transform="translate(-105.69 -160.49)"/><text class="cls-4" transform="translate(46 20.4)">12</text><text class="cls-4" transform="translate(48.03 85.8)">6</text><text class="cls-4" transform="translate(15.08 54.75)">9</text><text class="cls-4" transform="translate(80.22 54.75)">3</text><circle class="cls-5" cx="50.06" cy="50.31" r="2.03"/><rect class="cls-5" x="49.3" y="50.31" width="1.52" height="18"/><polygon class="cls-5" points="50.06 70.9 49.01 68.05 51.1 68.05 50.06 70.9"/><rect class="cls-5" x="142.42" y="197.98" width="1.52" height="25.64" transform="translate(248.29 -92.87) rotate(90)"/><polygon class="cls-5" points="22.08 50.31 24.93 49.27 24.93 51.36 22.08 50.31"/><rect class="cls-5" x="139.23" y="237.76" width="1.43" height="4.18" transform="translate(35.51 357.06) rotate(-150)"/><rect class="cls-5" x="127.43" y="226.7" width="1.43" height="4.18" transform="translate(-111.62 293.68) rotate(-120)"/><rect class="cls-5" x="127.06" y="191.88" width="1.43" height="4.18" transform="translate(-209.79 47.15) rotate(-60)"/><rect class="cls-5" x="139.23" y="179.65" width="1.43" height="4.18" transform="translate(-177.81 -66.17) rotate(-30)"/><rect class="cls-5" x="173.76" y="236.72" width="1.43" height="4.18" transform="translate(-201.72 -41.25) rotate(-30)"/><rect class="cls-5" x="185.56" y="225.66" width="1.43" height="4.18" transform="translate(-209.79 114.71) rotate(-60)"/><rect class="cls-5" x="185.56" y="193.14" width="1.43" height="4.18" transform="translate(4.64 293.68) rotate(-120)"/><rect class="cls-5" x="173.76" y="180.77" width="1.43" height="4.18" transform="translate(128.46 267.98) rotate(-150)"/></svg>