<svg xmlns="http://www.w3.org/2000/svg" viewBox="0 0 90.88 73.51"><defs><style>.cls-1{fill:#f9d7aa;fill-rule:evenodd;}.cls-2{fill:#af6a2b;}</style></defs><title>资源 7</title><g id="图层_2" data-name="图层 2"><g id="图层_3" data-name="图层 3"><path class="cls-1" d="M65.06,4.39S42.7-7.39,32.83,13c0,0-21.58-10.25-30.29,10.55S25,50.73,25,50.73s-2.21,16.54,10.5,20.69A20.07,20.07,0,0,0,56.2,66.69s18.48,6,28-3.62,6.36-29.24-4.4-29.56S84.36,19.64,65.06,4.39Z"/><path class="cls-2" d="M42.11,73.51a22.25,22.25,0,0,1-6.94-1.14c-11.56-3.78-11.5-17.21-11.26-20.86-3.63-.87-17.29-4.71-22.18-14C-.54,33.27-.58,28.43,1.62,23.2,4.21,17,8.17,12.85,13.4,10.86c7.9-3,16.25-.21,19,.88,2.83-5.42,6.83-9,11.89-10.68C54.38-2.27,65.07,3.27,65.52,3.5l.15.1c11.53,9.12,11.15,17.65,10.89,23.3-.1,2.22-.18,4,.58,4.79a3.83,3.83,0,0,0,2.72.81c4.19.13,7.68,2.93,9.58,7.69,2.63,6.56,1.94,17.06-4.5,23.58-9,9.12-25.13,5-28.46,4.05A21.53,21.53,0,0,1,42.11,73.51Zm-21-62a19.43,19.43,0,0,0-7,1.21C9.41,14.52,5.83,18.31,3.46,24c-2,4.66-1.94,8.91,0,12.65C8.59,46.26,25,49.72,25.18,49.75l.91.19-.12.92c-.08.64-1.94,15.76,9.82,19.6A18.91,18.91,0,0,0,55.46,66l.44-.48.62.2c.18.06,18,5.73,27-3.38,5.85-5.91,6.46-15.45,4.07-21.43-.94-2.34-3.2-6.29-7.79-6.43a5.52,5.52,0,0,1-4.12-1.45c-1.33-1.43-1.23-3.55-1.11-6.24.24-5.23.6-13.13-10.06-21.58C63.55,4.75,53.76,0,44.87,3c-4.78,1.58-8.53,5.11-11.13,10.5l-.43.89-.9-.42A29.82,29.82,0,0,0,21.07,11.51Z"/></g></g></svg>