<svg xmlns:xlink="http://www.w3.org/1999/xlink" xmlns="http://www.w3.org/2000/svg" version="1.1" viewBox="0 0 220 220" height="220px" width="220px">
    <title>敬请期待</title>
    <defs>
        <linearGradient id="linearGradient-1" y2="208.881283%" x2="50%" y1="0%" x1="50%">
            <stop offset="0%" stop-color="#FBFBFB"></stop>
            <stop offset="100%" stop-color="#D3DDFF"></stop>
        </linearGradient>
        <linearGradient id="linearGradient-2" y2="121.981%" x2="14.8966276%" y1="0%" x1="57.4525979%">
            <stop offset="0%" stop-color="#FFFFFF"></stop>
            <stop offset="100%" stop-color="#FD9F9F"></stop>
        </linearGradient>
    </defs>
    <g fill-rule="evenodd" fill="none" stroke-width="1" stroke="none" id="敬请期待">
        <rect height="220" width="220" y="0" x="0" fill="#FFFFFF" fill-opacity="0" id="矩形"></rect>
        <ellipse ry="19.6940299" rx="110" cy="192.30597" cx="110" fill="url(#linearGradient-1)" id="椭圆形"></ellipse>
        <g transform="translate(20.000000, 8.000000)" id="编组-11">
            <g transform="translate(70.152543, 0.000000)" id="编组-6">
                <path fill="#D3DDFF" id="形状结合" d="M28,0 C30.209139,-4.05812251e-16 32,1.790861 32,4 L32,12 C32,15.7275499 29.4506308,18.8596627 26.0003581,19.7478729 L26,25 L6,25 L6.00064404,19.7481308 C2.54986283,18.8602692 4.56537401e-16,15.7279108 0,12 L0,4 C-2.705415e-16,1.790861 1.790861,4.05812251e-16 4,0 L28,0 Z"></path>
                <rect height="1" width="16" y="20" x="8" fill="#FFFFFF" id="矩形"></rect>
                <rect height="2" width="16" y="23" x="8" fill="#FFFFFF" id="矩形"></rect>
                <rect rx="1" height="12" width="2" y="4" x="3" fill="#FFFFFF" id="矩形"></rect>
                <rect rx="1" height="12" width="2" y="4" x="9" fill="#FFFFFF" id="矩形"></rect>
                <rect rx="1" height="12" width="2" y="4" x="15" fill="#FFFFFF" id="矩形"></rect>
                <rect rx="1" height="12" width="2" y="4" x="21" fill="#FFFFFF" id="矩形"></rect>
                <rect rx="1" height="12" width="2" y="4" x="27" fill="#FFFFFF" id="矩形"></rect>
            </g>
            <g transform="translate(20.152543, 39.500000) rotate(-45.000000) translate(-20.152543, -39.500000) translate(4.152543, 27.000000)" id="编组-6">
                <rect height="8" width="20" y="17" x="6" fill="#DAE0EC" id="矩形"></rect>
                <rect height="1" width="16" y="20" x="8" fill="#FFFFFF" id="矩形"></rect>
                <rect height="2" width="16" y="23" x="8" fill="#FFFFFF" id="矩形"></rect>
                <path fill="#D3DDFF" id="矩形备份" d="M4,0 L28,0 C30.209139,-4.05812251e-16 32,1.790861 32,4 L32,12 C32,16.418278 28.418278,20 24,20 L8,20 C3.581722,20 5.41083001e-16,16.418278 0,12 L0,4 C-2.705415e-16,1.790861 1.790861,4.05812251e-16 4,0 Z"></path>
                <rect rx="1" height="12" width="2" y="4" x="3" fill="#FFFFFF" id="矩形"></rect>
                <rect rx="1" height="12" width="2" y="4" x="9" fill="#FFFFFF" id="矩形"></rect>
                <rect rx="1" height="12" width="2" y="4" x="15" fill="#FFFFFF" id="矩形"></rect>
                <rect rx="1" height="12" width="2" y="4" x="21" fill="#FFFFFF" id="矩形"></rect>
                <rect rx="1" height="12" width="2" y="4" x="27" fill="#FFFFFF" id="矩形"></rect>
            </g>
            <g transform="translate(151.152543, 38.500000) rotate(45.000000) translate(-151.152543, -38.500000) translate(135.152543, 26.000000)" id="编组-6">
                <rect height="8" width="20" y="17" x="6" fill="#DAE0EC" id="矩形"></rect>
                <rect height="2" width="16" y="19" x="8" fill="#FFFFFF" id="矩形"></rect>
                <rect height="2" width="16" y="23" x="8" fill="#FFFFFF" id="矩形"></rect>
                <path fill="#D3DDFF" id="矩形备份" d="M4,0 L28,0 C30.209139,-4.05812251e-16 32,1.790861 32,4 L32,12 C32,16.418278 28.418278,20 24,20 L8,20 C3.581722,20 5.41083001e-16,16.418278 0,12 L0,4 C-2.705415e-16,1.790861 1.790861,4.05812251e-16 4,0 Z"></path>
                <rect rx="1" height="12" width="2" y="4" x="3" fill="#FFFFFF" id="矩形"></rect>
                <rect rx="1" height="12" width="2" y="4" x="9" fill="#FFFFFF" id="矩形"></rect>
                <rect rx="1" height="12" width="2" y="4" x="15" fill="#FFFFFF" id="矩形"></rect>
                <rect rx="1" height="12" width="2" y="4" x="21" fill="#FFFFFF" id="矩形"></rect>
                <rect rx="1" height="12" width="2" y="4" x="27" fill="#FFFFFF" id="矩形"></rect>
            </g>
            <circle r="84" cy="108" cx="86.1525433" fill="#D3DDFF" id="椭圆形"></circle>
            <circle r="64" cy="108" cx="86.1525433" fill="#FFFFFF" id="椭圆形"></circle>
            <path transform="translate(138.508331, 76.495953) rotate(40.000000) translate(-138.508331, -76.495953)" fill="#FFFFFF" id="矩形" d="M102.717406,58.9918252 C117.024244,58.1244209 130.012908,59.1744579 141.683399,62.141936 C153.413641,65.1246073 164.686686,72.1692879 175.502532,83.2759777 C177.322801,85.1404704 178.33989,87.6432607 178.339904,90.2489654 L178.339904,90.2943755 C178.339904,91.1604168 177.637839,91.8624819 176.771798,91.8624819 C176.344847,91.8624819 175.936356,91.6883916 175.640689,91.3803849 C165.356303,80.6689107 154.061662,73.3000074 141.756767,69.2736749 C129.500087,65.2631194 116.431437,64.3680389 102.550818,66.5884335 C100.726288,66.880293 99.0106166,65.6378175 98.7187582,63.8132879 C98.6908023,63.6385239 98.6767582,63.4618172 98.6767582,63.2848315 C98.6767582,61.0105774 100.447318,59.1294198 102.717406,58.9918252 Z"></path>
            <path fill="url(#linearGradient-2)" id="路径-8" d="M87.7037751,106.586708 L133.63379,64.7409103 C127.454116,58.0030911 120.267045,52.8274409 112.072576,49.2139598 C103.878107,45.6004786 95.2380963,43.7969033 86.1525433,43.8032338 L86.1525433,105.06208 L87.7037751,106.586708 Z"></path>
            <g transform="translate(26.152543, 48.000000)" id="编组-9">
                <g fill="#D8D8D8" id="编组-8">
                    <path id="形状结合" d="M60,0 C61.1045695,-2.02906125e-16 62,0.8954305 62,2 L62,9 C62,10.1045695 61.1045695,11 60,11 C58.8954305,11 58,10.1045695 58,9 L58,2 C58,0.8954305 58.8954305,2.02906125e-16 60,0 Z M60,109 C61.1045695,109 62,109.895431 62,111 L62,118 C62,119.104569 61.1045695,120 60,120 C58.8954305,120 58,119.104569 58,118 L58,111 C58,109.895431 58.8954305,109 60,109 Z M120,60 C120,61.1045695 119.104569,62 118,62 L111,62 C109.895431,62 109,61.1045695 109,60 C109,58.8954305 109.895431,58 111,58 L118,58 C119.104569,58 120,58.8954305 120,60 Z M11,60 C11,61.1045695 10.1045695,62 9,62 L2,62 C0.8954305,62 0,61.1045695 0,60 C0,58.8954305 0.8954305,58 2,58 L9,58 C10.1045695,58 11,58.8954305 11,60 Z"></path>
                </g>
                <g transform="translate(60.000000, 60.000000) rotate(90.000000) translate(-60.000000, -60.000000) translate(58.000000, 0.000000)" id="编组-7"></g>
            </g>
            <g fill="#ED6161" transform="translate(83.824534, 69.000000)" id="编组-10">
                <path id="形状结合" d="M2.40404461,0 C3.50861411,-2.02906125e-16 4.40404461,0.8954305 4.40404461,2 L4.404,33.511 L21.469811,18.1458819 C22.2906661,17.4067806 23.5552606,17.4730552 24.2943618,18.2939103 C25.0334631,19.1147654 24.9671885,20.3793599 24.1463334,21.1184612 L3.33827827,39.8541181 C2.51742316,40.5932194 1.25282866,40.5269448 0.513727405,39.7060897 C-0.138420765,38.9818058 -0.163546216,37.91205 0.40345705,37.1626397 L0.404044612,2 C0.404044612,0.8954305 1.29947511,2.02906125e-16 2.40404461,0 Z M2.17546619,37.3 C1.62318144,37.3 1.17546619,37.7477153 1.17546619,38.3 C1.17546619,38.8522847 1.62318144,39.3 2.17546619,39.3 C2.72775094,39.3 3.17546619,38.8522847 3.17546619,38.3 C3.17546619,37.7477153 2.72775094,37.3 2.17546619,37.3 Z"></path>
            </g>
        </g>
    </g>
</svg>