<svg t="1670299845060" class="icon" viewBox="0 0 1024 1024" version="1.1" xmlns="http://www.w3.org/2000/svg" p-id="6159" width="200" height="200"><path d="M950.9 577.96a54.296 54.296 0 0 0-54.296 54.288v230.376c0 0.504-0.56 1.208-1.608 1.208H114.14c-1.056 0-1.616-0.704-1.616-1.208V161.376c0-0.512 0.56-1.208 1.616-1.208h191.4a54.288 54.288 0 1 0 0-108.568H114.14C53.38 51.6 3.956 100.84 3.956 161.384v701.248c0 60.528 49.424 109.792 110.184 109.792h780.856c60.752 0 110.184-49.256 110.184-109.792V632.248a54.288 54.288 0 0 0-54.28-54.288z" fill="#5eb670" p-id="6160"></path><path d="M493.444 743.616c0.136-1.136 13.44-113.776 78.288-229.72 70-125.168 170.896-205.736 300.552-240.392l-69.2 191.888a54.304 54.304 0 0 0 102.144 36.832l111.584-309.432a54.312 54.312 0 0 0-33.328-69.72L674.86 16.328a54.296 54.296 0 0 0-35.496 102.6l172.136 59.536c-143.48 47.248-258.4 144.448-336.552 286.072-74.328 134.72-88.832 261.872-89.424 267.224a54.24 54.24 0 0 0 48.104 59.832 54.272 54.272 0 0 0 59.816-47.976z" fill="#5eb670" p-id="6161"></path></svg>