<svg t="1670318704586" class="icon" viewBox="0 0 1024 1024" version="1.1" xmlns="http://www.w3.org/2000/svg" p-id="3212" width="200" height="200"><path d="M844.914 403.357c-43.266 66.523-103.729 124.158-167.389 170.524-51.818 37.662-110.211 76.51-174.788 86.434-33.124 5.178-72.551 3.26-104.519-7.184-46.489-15.133-87.377-45.455-126.864-73.345-23.109-16.287-41.285-8.521-58.638 11.753-10.779 12.605-10.199 39.43-20.094 49.535-12.635 13.064-26.304 10.719-26.944-12.512-0.73-32.24 45.728-69.02 72.125-78.916-14.553-50.385 19.728-136.424 52.153-173.842 123.395-142.149 332.645-122.299 480.854-36.169 6.667 3.928 83.571 48.987 74.104 63.722z" fill="#C8D62C" p-id="3213"></path></svg>