<?xml version="1.0" standalone="no"?><!DOCTYPE svg PUBLIC "-//W3C//DTD SVG 1.1//EN" "http://www.w3.org/Graphics/SVG/1.1/DTD/svg11.dtd"><svg t="1667548486132" class="icon" viewBox="0 0 1024 1024" version="1.1" xmlns="http://www.w3.org/2000/svg" p-id="7739" xmlns:xlink="http://www.w3.org/1999/xlink" width="200" height="200"><path d="M512 0a512 512 0 1 0 512 512A512 512 0 0 0 512 0z m0 921.6a409.6 409.6 0 1 1 409.6-409.6 409.6 409.6 0 0 1-409.6 409.6z" fill="#3E4055" p-id="7740"></path><path d="M640 219.648L512 347.648l-128-128a51.2 51.2 0 0 0-72.704 72.704l94.208 93.696h-35.84a51.2 51.2 0 0 0 0 102.4H460.8v39.936H369.664a51.2 51.2 0 0 0 0 102.4H460.8V768a51.2 51.2 0 0 0 102.4 0v-137.216h91.136a51.2 51.2 0 0 0 0-102.4H563.2v-39.936h91.136a51.2 51.2 0 0 0 0-102.4h-35.84l93.696-93.696a51.2 51.2 0 0 0-72.192-72.704z" fill="#3E4055" p-id="7741"></path></svg>