<?xml version="1.0" encoding="UTF-8"?>
<svg width="244px" height="208px" viewBox="0 0 244 208" version="1.1" xmlns="http://www.w3.org/2000/svg" xmlns:xlink="http://www.w3.org/1999/xlink">
    <!-- Generator: Sketch 55 (78076) - https://sketchapp.com -->
    <title>暂无账单、账单</title>
    <desc>Created with Sketch.</desc>
    <g id="Page-1" stroke="none" stroke-width="1" fill="none" fill-rule="evenodd">
        <g id="亮背景时使用" transform="translate(-796.000000, -904.000000)">
            <g id="暂无账单、账单" transform="translate(796.000000, 904.000000)">
                <g id="背景/彩">
                    <g id="-">
                        <g id="编组" transform="translate(28.400000, 18.400000)">
                            <polyline id="路径" stroke="#DEF5FF" stroke-width="40" stroke-linecap="round" stroke-linejoin="round" points="121.6 27.4476562 49.6 71.0238281 121.6 66.6 129.6 66.6 72.167827 114.6"></polyline>
                            <path d="M1.6,146.2 C0.7163444,146.2 -5.68434189e-14,145.483656 -5.68434189e-14,144.6 C-5.68434189e-14,143.716344 0.7163444,143 1.6,143 L141.6,143 C142.483656,143 143.2,143.716344 143.2,144.6 C143.2,145.483656 142.483656,146.2 141.6,146.2 L1.6,146.2 Z M149.6,146.2 C148.716344,146.2 148,145.483656 148,144.6 C148,143.716344 148.716344,143 149.6,143 L154.6,143 C155.483656,143 156.2,143.716344 156.2,144.6 C156.2,145.483656 155.483656,146.2 154.6,146.2 L149.6,146.2 Z M167.6,146.2 C166.716344,146.2 166,145.483656 166,144.6 C166,143.716344 166.716344,143 167.6,143 L185.6,143 C186.483656,143 187.2,143.716344 187.2,144.6 C187.2,145.483656 186.483656,146.2 185.6,146.2 L167.6,146.2 Z M47.6,161.2 C46.7163444,161.2 46,160.483656 46,159.6 C46,158.716344 46.7163444,158 47.6,158 L61.6,158 C62.4836556,158 63.2,158.716344 63.2,159.6 C63.2,160.483656 62.4836556,161.2 61.6,161.2 L47.6,161.2 Z M70.6,161.2 C69.7163444,161.2 69,160.483656 69,159.6 C69,158.716344 69.7163444,158 70.6,158 L131.6,158 C132.483656,158 133.2,158.716344 133.2,159.6 C133.2,160.483656 132.483656,161.2 131.6,161.2 L70.6,161.2 Z M160,105.6 C160,103.466667 163.2,103.466667 163.2,105.6 L163.2,111.6 C163.2,112.483656 162.483656,113.2 161.6,113.2 L155.6,113.2 C153.466667,113.2 153.466667,110 155.6,110 L160,110 L160,105.6 Z M163.2,117.6 C163.2,119.733333 160,119.733333 160,117.6 L160,111.6 C160,110.716344 160.716344,110 161.6,110 L167.6,110 C169.733333,110 169.733333,113.2 167.6,113.2 L163.2,113.2 L163.2,117.6 Z M8,57.6 C8,55.4666667 11.2,55.4666667 11.2,57.6 L11.2,63.6 C11.2,64.4836556 10.4836556,65.2 9.6,65.2 L3.6,65.2 C1.46666667,65.2 1.46666667,62 3.6,62 L8,62 L8,57.6 Z M156.2,7 L161.6,7 C163.733333,7 163.733333,10.2 161.6,10.2 L156.2,10.2 L156.2,15.6 C156.2,17.7333333 153,17.7333333 153,15.6 L153,10.2 L147.6,10.2 C145.466667,10.2 145.466667,7 147.6,7 L153,7 L153,1.6 C153,-0.533333333 156.2,-0.533333333 156.2,1.6 L156.2,7 Z M11.2,69.6 C11.2,71.7333333 8,71.7333333 8,69.6 L8,63.6 C8,62.7163444 8.7163444,62 9.6,62 L15.6,62 C17.7333333,62 17.7333333,65.2 15.6,65.2 L11.2,65.2 L11.2,69.6 Z" id="Path-2" fill="#333745" fill-rule="nonzero"></path>
                            <path d="M28.1857864,122.286292 C29.1285955,121.343482 30.542809,122.757696 29.6,123.700505 L27.4786797,125.821825 C27.0881554,126.21235 26.4549904,126.21235 26.0644661,125.821825 L23.9431458,123.700505 C23.0003367,122.757696 24.4145503,121.343482 25.3573593,122.286292 L26.7715729,123.700505 L28.1857864,122.286292 Z M25.3573593,127.943146 C24.4145503,128.885955 23.0003367,127.471741 23.9431458,126.528932 L26.0644661,124.407612 C26.4549904,124.017088 27.0881554,124.017088 27.4786797,124.407612 L29.6,126.528932 C30.542809,127.471741 29.1285955,128.885955 28.1857864,127.943146 L26.7715729,126.528932 L25.3573593,127.943146 Z M45.8426407,17.6 C46.7854497,16.657191 48.1996633,18.0714045 47.2568542,19.0142136 L45.1355339,21.1355339 C44.7450096,21.5260582 44.1118446,21.5260582 43.7213203,21.1355339 L41.6,19.0142136 C40.657191,18.0714045 42.0714045,16.657191 43.0142136,17.6 L44.4284271,19.0142136 L45.8426407,17.6 Z M43.0142136,23.2568542 C42.0714045,24.1996633 40.657191,22.7854497 41.6,21.8426407 L43.7213203,19.7213203 C44.1118446,19.3307961 44.7450096,19.3307961 45.1355339,19.7213203 L47.2568542,21.8426407 C48.1996633,22.7854497 46.7854497,24.1996633 45.8426407,23.2568542 L44.4284271,21.8426407 L43.0142136,23.2568542 Z" id="Path复制" fill="#657180" fill-rule="nonzero"></path>
                        </g>
                    </g>
                </g>
                <g id="编组" transform="translate(70.000000, 60.000000)">
                    <path d="M70,43.4 L70,78 C70,82.418 73.582,86 78,86 C82.418,86 86,82.418 86,78 L86,68 L70,68 L70,12 L70,8 C70,3.581722 66.418278,-8.11624501e-16 62,0 L62,0 C57.581722,8.11624501e-16 54,3.581722 54,8 L54,12 L2.04636308e-12,12 L2.04636308e-12,74 C1.12976295e-12,80.626 5.374,86 12,86 L78,86 L78,86 C73.5378309,85.9678563 69.939443,82.3378124 69.9463829,77.8755329 L70,43.4 Z" id="Stroke-1-Copy" stroke="#333745" stroke-width="3.2" fill="#FFF9D7" stroke-linecap="round" stroke-linejoin="round" transform="translate(43.000000, 43.000000) rotate(-180.000000) translate(-43.000000, -43.000000) "></path>
                    <path d="M32,68 L32,68 L94,68 L94,68 C89.581722,68 86,71.581722 86,76 L86,86 L24,86 L24,76 C24,71.581722 27.581722,68 32,68 Z" id="Stroke-1-Copy复制" stroke="#333745" stroke-width="3.2" fill="#FFDB00" stroke-linecap="round" stroke-linejoin="round" transform="translate(59.000000, 77.000000) rotate(-180.000000) translate(-59.000000, -77.000000) "></path>
                    <path d="M0,10 C-1.98951966e-13,14.418 3.582,18 8,18 C12.418,18 16,14.418 16,10 L16,1.13686838e-13 L0,1.13686838e-13 L0,10 Z" id="Stroke-1" stroke="#333745" stroke-width="3.2" fill="#FFDB00" stroke-linecap="round" stroke-linejoin="round" transform="translate(8.000000, 9.000000) rotate(-180.000000) translate(-8.000000, -9.000000) "></path>
                    <path d="M32,55 L72,55 L32,55 Z M58,45 L71,45 L58,45 Z M58,35 L71,35 L58,35 Z M58,25 L71,25 L58,25 Z" id="Path-9-Copy-2" stroke="#333745" stroke-width="2.8" stroke-linecap="round" stroke-linejoin="round"></path>
                    <path d="M50,32.7207207 C50,35.6756757 49.3227961,37.7657658 47.9723954,38.990991 C46.7862867,40.0720721 44.7707035,40.6726727 41.9216385,40.7967968 L41.9216385,42.9349349 C41.9216385,43.5235235 41.4447907,44 40.8517364,44 L40.1745325,44 C39.5854853,44 39.1086376,43.5235235 39.1086376,42.9349349 L39.1086376,40.7967968 C36.7524488,40.6726727 34.9973286,40.0600601 33.8432769,38.954955 C32.6170971,37.8058058 32,36 32,33.5495495 L32,33.017017 C32,32.4284284 32.4808549,31.951952 33.069902,31.951952 L37.9305432,31.951952 C38.5195904,31.951952 39.0004452,32.4284284 39.0004452,33.017017 L39.0004452,34.0900901 C39.0004452,35.5315315 39.5934996,36.2522523 40.7876224,36.2522523 C41.9777382,36.2522523 42.5707925,35.4834835 42.5707925,33.9459459 C42.5707925,33.2012012 42.4225289,32.6486486 42.1380232,32.2882883 C41.9657168,32.0720721 41.5930543,31.7957958 41.0120214,31.4594595 C40.2386465,31.1271271 39.0365093,30.5705706 37.3935886,29.8018018 C35.754675,29.033033 34.6326803,28.3483483 34.0276046,27.7477477 C32.8214604,26.5465465 32.2203918,24.8888889 32.2203918,22.7747748 C32.2203918,17.7057057 34.5164737,15.035035 39.1086376,14.7747748 L39.1086376,13.0650651 C39.1086376,12.4764765 39.5854853,12 40.1745325,12 L40.8517364,12 C41.4447907,12 41.9216385,12.4764765 41.9216385,13.0650651 L41.9216385,14.7747748 C44.8308103,14.8908909 46.8624221,15.6996997 48.0164737,17.1891892 C48.7938557,18.2182182 49.2346394,19.6916917 49.3308103,21.6016016 C49.3388246,21.7977978 49.3468388,21.6416416 49.3468388,22.3463463 C49.3508459,22.9389389 48.8699911,23.4274274 48.2809439,23.4274274 L43.6406946,23.4274274 C43.0476402,23.4274274 42.5707925,22.950951 42.5707925,22.3623624 L42.5707925,21.4054054 C42.5707925,20.012012 42.0057881,19.3113113 40.8757792,19.3113113 C39.769813,19.3113113 39.2168299,19.975976 39.2168299,21.2932933 C39.2168299,22.5945946 40.1464826,23.6516517 42.0017809,24.4684685 C45.1153161,25.8098098 46.8504007,26.6066066 47.215049,26.8468468 C49.0703473,28.1881882 50,30.1461461 50,32.7207207" id="Fill-3" fill="#333745"></path>
                </g>
            </g>
        </g>
    </g>
</svg>