<svg t="1670299423663" class="icon" viewBox="0 0 1024 1024" version="1.1" xmlns="http://www.w3.org/2000/svg" p-id="2661" width="200" height="200"><path d="M104.247178 824.865976H99.553975a56.887309 56.887309 0 1 1 0-113.774617v-142.218272a56.887309 56.887309 0 1 1 0-113.774618v-142.218271a56.887309 56.887309 0 1 1 0-113.774618h4.693203c4.892309-37.403405 13.567623-60.016111 25.713064-82.685703a206.785367 206.785367 0 0 1 86.013611-86.013611C253.035934 10.524152 289.813579 0 391.272094 0h298.317047c101.458515 0 138.23616 10.552596 175.298242 30.406266a206.785367 206.785367 0 0 1 86.01361 86.013611C970.783108 153.481959 981.30726 190.259604 981.30726 291.718119v440.535318c0 101.458515-10.552596 138.23616-30.406267 175.298242a206.785367 206.785367 0 0 1-86.01361 86.013611C827.825301 1013.447404 791.047656 1023.971556 689.589141 1023.971556H391.272094c-101.458515 0-138.23616-10.552596-175.298241-30.406266a206.785367 206.785367 0 0 1-86.013611-86.013611c-12.14544-22.698036-20.820755-45.282298-25.713064-82.685703z m113.94528 0c2.503042 10.865476 5.973167 18.971917 10.325046 27.135246 9.926835 18.545263 24.461543 33.07997 43.006806 43.006806 18.545263 9.898392 36.948307 15.188911 87.663342 15.188911h362.485931c50.715036 0 69.11808-5.29052 87.663343-15.188911a103.392684 103.392684 0 0 0 43.006805-43.006806c9.898392-18.545263 15.188911-36.948307 15.188912-87.663342V259.633677c0-50.715036-5.29052-69.11808-15.188912-87.663343a103.392684 103.392684 0 0 0-43.006805-43.006805C790.791663 119.065137 772.388619 113.774617 721.673583 113.774617H359.187652c-50.715036 0-69.11808 5.29052-87.663342 15.188912a103.392684 103.392684 0 0 0-43.006806 43.006805A104.786423 104.786423 0 0 0 218.192458 199.10558H241.772247a56.887309 56.887309 0 1 1 0 113.774618H213.328593v142.218271h28.443654a56.887309 56.887309 0 1 1 0 113.774618H213.328593v142.218272h28.443654a56.887309 56.887309 0 1 1 0 113.774617h-23.608233z m453.534068-369.653732a56.887309 56.887309 0 0 1-0.739535 113.774617h-42.693925v28.443655h42.693925a56.887309 56.887309 0 1 1 0 113.774617h-42.693925a56.887309 56.887309 0 1 1-113.774617 0H471.881411a56.887309 56.887309 0 1 1 0-113.774617h42.637038v-28.443655H471.881411a56.887309 56.887309 0 0 1-0.796423-113.774617l-76.797866-109.707175a56.887309 56.887309 0 1 1 93.181411-65.249743l83.908781 119.833116 83.937224-119.833116a56.887309 56.887309 0 1 1 93.209855 65.249743l-76.797867 109.707175z" p-id="2662" fill="#5eb670"></path></svg>