<?xml version="1.0" standalone="no"?><!DOCTYPE svg PUBLIC "-//W3C//DTD SVG 1.1//EN" "http://www.w3.org/Graphics/SVG/1.1/DTD/svg11.dtd"><svg t="1667199040691" class="icon" viewBox="0 0 1024 1024" version="1.1" xmlns="http://www.w3.org/2000/svg" p-id="2589" xmlns:xlink="http://www.w3.org/1999/xlink" width="200" height="200"><path d="M812.4 201.5l-41.7-41.7c-16-16-42.4-15.7-58.7 0.7l-62.7 62.7H255.5c-30.7 0-55.7 25-55.7 55.7v541.4c0 30.7 25 55.7 55.7 55.7H694c30.7 0 55.7-25 55.7-55.7V322.2l62-62c16.4-16.4 16.7-42.7 0.7-58.7z m-99.9 618.8c0 10.2-8.3 18.6-18.6 18.6H255.5c-10.2 0-18.6-8.3-18.6-18.6V278.9c0-10.2 8.3-18.6 18.6-18.6h356.6L498 374.5c-7.8 7.8-12.3 18.1-12.5 29.1l-1 41.4c-0.3 11.2 3.9 21.8 11.8 29.7 7.7 7.7 17.8 11.8 28.7 11.8h1l44.1-1c12-0.3 23.4-5.7 31.3-15l111.1-111.1v460.9z m70.9-588.4L572.5 442.8l-0.7 0.7-0.7 0.8c-0.4 0.5-1.1 1.1-1.9 1.1l-44.1 1c-0.3 0-0.4-0.1-0.5-0.1 0 0-0.1-0.1-0.1-0.5l1-41.4c0-0.8 0.6-1.4 0.8-1.7l214-214c0.6-0.6 1.3-0.8 1.7-0.8 0.2 0 0.4 0 0.4 0.1l41.7 41.7c0.1 0.2 0.3 1.3-0.7 2.2z" p-id="2590"></path><path d="M301.2 570.2c0 11 9 20 20 20h316c11 0 20-9 20-20s-9-20-20-20h-316c-11.1 0-20 8.9-20 20zM493.3 668.5H321.2c-11 0-20 9-20 20s9 20 20 20h172.2c11 0 20-9 20-20s-9-20-20.1-20z" p-id="2591"></path></svg>