<svg xmlns="http://www.w3.org/2000/svg" xmlns:xlink="http://www.w3.org/1999/xlink" fill="none" version="1.1" width="32" height="26.70458984375" viewBox="0 0 32 26.70458984375"><g style="mix-blend-mode:passthrough"><g><path d="M2.051654815673828,20.896116647338868C2.051654815673828,20.896116647338868,6.135554815673828,20.896116647338868,6.135554815673828,20.896116647338868C6.135554815673828,20.896116647338868,6.135554815673828,26.005416647338865,6.135554815673828,26.005416647338865C6.135554815673828,26.005416647338865,2.051654815673828,26.005416647338865,2.051654815673828,26.005416647338865C2.051654815673828,26.005416647338865,2.051654815673828,20.896116647338868,2.051654815673828,20.896116647338868C2.051654815673828,20.896116647338868,2.051654815673828,20.896116647338868,2.051654815673828,20.896116647338868ZM10.219464815673827,12.728326647338868C10.219464815673827,12.728326647338868,14.303354815673828,12.728326647338868,14.303354815673828,12.728326647338868C14.303354815673828,12.728326647338868,14.303354815673828,26.005416647338865,14.303354815673828,26.005416647338865C14.303354815673828,26.005416647338865,10.219464815673827,26.005416647338865,10.219464815673827,26.005416647338865C10.219464815673827,26.005416647338865,10.219464815673827,12.728326647338868,10.219464815673827,12.728326647338868C10.219464815673827,12.728326647338868,10.219464815673827,12.728326647338868,10.219464815673827,12.728326647338868ZM17.379554815673828,16.812226647338868C17.379554815673828,16.812226647338868,21.463454815673828,16.812226647338868,21.463454815673828,16.812226647338868C21.463454815673828,16.812226647338868,21.463454815673828,26.005416647338865,21.463454815673828,26.005416647338865C21.463454815673828,26.005416647338865,17.379554815673828,26.005416647338865,17.379554815673828,26.005416647338865C17.379554815673828,26.005416647338865,17.379554815673828,16.812226647338868,17.379554815673828,16.812226647338868C17.379554815673828,16.812226647338868,17.379554815673828,16.812226647338868,17.379554815673828,16.812226647338868ZM26.555054815673827,7.619016647338867C26.555054815673827,7.619016647338867,30.638954815673827,7.619016647338867,30.638954815673827,7.619016647338867C30.638954815673827,7.619016647338867,30.638954815673827,24.980016647338868,30.638954815673827,24.980016647338868C30.638954815673827,24.980016647338868,26.555054815673827,24.980016647338868,26.555054815673827,24.980016647338868C26.555054815673827,24.980016647338868,26.555054815673827,7.619016647338867,26.555054815673827,7.619016647338867C26.555054815673827,7.619016647338867,26.555054815673827,7.619016647338867,26.555054815673827,7.619016647338867Z" fill="#CAE4FF" fill-opacity="1"/></g><g><path d="M4.136938649024963,17.4583C5.321448649024964,17.4583,6.293808649024963,16.4859,6.2761286490249635,15.3014C6.2761286490249635,15.0185,6.223088649024963,14.7533,6.117018649024963,14.4881C6.117018649024963,14.4881,11.226318649024963,9.37883,11.226318649024963,9.37883C11.491508649024963,9.48489,11.756688649024964,9.53793,12.039548649024963,9.53793C12.552248649024964,9.53793,13.029548649024964,9.34347,13.418548649024963,9.00757C13.418548649024963,9.00757,17.838348649024965,11.2175,17.838348649024965,11.2175C17.838348649024965,11.2705,17.802948649024962,11.3059,17.802948649024962,11.3589C17.802948649024962,12.5434,18.757648649024965,13.5158,19.942148649024965,13.5158C21.126648649024965,13.5158,22.099048649024965,12.5611,22.099048649024965,11.3766C22.099048649024965,11.0937,22.046048649024964,10.8109,21.939948649024963,10.5457C21.939948649024963,10.5457,27.084548649024963,4.11041,27.084548649024963,4.11041C28.180648649024963,4.5524,29.435948649024965,4.02202,29.877848649024962,2.9259C30.196148649024963,2.13035,30.019348649024963,1.21102,29.400548649024962,0.60993C28.551948649024965,-0.20331,27.208348649024963,-0.20331,26.359748649024965,0.60993C25.740948649024965,1.22871,25.564148649024965,2.14802,25.900048649024964,2.96127C25.900048649024964,2.96127,20.755448649024963,9.3965,20.755448649024963,9.3965C20.030548649024965,9.13132,19.199648649024965,9.25508,18.598548649024963,9.76777C18.598548649024963,9.76777,14.161048649024963,7.55787,14.161048649024963,7.55787C14.161048649024963,7.50482,14.196448649024964,7.46947,14.196448649024964,7.41644C14.196448649024964,6.85069,13.966548649024963,6.30264,13.577648649024963,5.89602C12.729048649024964,5.08276,11.385428649024963,5.08276,10.536828649024963,5.89602C9.935738649024962,6.5148,9.741258649024964,7.43413,10.077158649024963,8.22969C10.077158649024963,8.22969,4.950188649024963,13.3567,4.950188649024963,13.3567C4.154618649024963,13.0384,3.2529786490249633,13.2329,2.6165346490249632,13.8163C1.7679256490249633,14.6472,1.7679256490249633,16.0085,2.5988426490249634,16.8571C3.0231486490249635,17.2461,3.5712086490249635,17.4759,4.136948649024964,17.4583C4.136948649024964,17.4583,4.136938649024963,17.4583,4.136938649024963,17.4583ZM27.544248649024965,1.77676C27.738748649024963,1.59997,28.056948649024964,1.59997,28.233748649024964,1.81212C28.410548649024964,2.00658,28.410548649024964,2.28946,28.233748649024964,2.48393C28.039248649024962,2.66072,27.738748649024963,2.66072,27.544248649024965,2.48393C27.349748649024963,2.27177,27.349748649024963,1.97124,27.544248649024965,1.77676C27.544248649024965,1.77676,27.544248649024965,1.77676,27.544248649024965,1.77676ZM19.623948649024964,11.0053C19.818448649024962,10.8109,20.118948649024965,10.8109,20.313448649024963,11.0053C20.507948649024964,11.1998,20.507948649024964,11.5003,20.313448649024963,11.6948C20.118948649024965,11.8716,19.818448649024962,11.8716,19.623948649024964,11.6948C19.429448649024962,11.5003,19.429448649024962,11.1998,19.623948649024964,11.0053C19.623948649024964,11.0053,19.623948649024964,11.0053,19.623948649024964,11.0053ZM11.703658649024963,7.04516C11.898118649024964,6.85069,12.198648649024964,6.85069,12.393148649024964,7.04516C12.587648649024963,7.23964,12.587648649024963,7.54019,12.393148649024964,7.73465C12.198648649024964,7.91145,11.898118649024964,7.91145,11.703658649024963,7.73465C11.544548649024964,7.55787,11.544548649024964,7.23964,11.703658649024963,7.04516C11.703658649024963,7.04516,11.703658649024963,7.04516,11.703658649024963,7.04516ZM3.8010386490249637,14.9655C3.9954986490249635,14.771,4.296058649024964,14.771,4.490528649024963,14.9655C4.684988649024963,15.1599,4.684988649024963,15.4782,4.490528649024963,15.655C4.296058649024964,15.8318,3.9954986490249635,15.8318,3.8010386490249637,15.655C3.6419286490249636,15.4782,3.6772786490249634,15.1776,3.8010386490249637,14.9655C3.8010386490249637,14.9655,3.8010386490249637,14.9655,3.8010386490249637,14.9655Z" fill="#0972E7" fill-opacity="1"/></g><g><path d="M31.1862,25.042623410034178C31.1862,25.042623410034178,30.6911,25.042623410034178,30.6911,25.042623410034178C30.6911,25.042623410034178,30.6911,7.39875641003418,30.6911,7.39875641003418C30.6911,6.93910041003418,30.3199,6.56782341003418,29.8602,6.56782341003418C29.8602,6.56782341003418,25.9001,6.56782341003418,25.9001,6.56782341003418C25.4404,6.56782341003418,25.0691,6.93910041003418,25.0691,7.39875641003418C25.0691,7.39875641003418,25.0691,25.042623410034178,25.0691,25.042623410034178C25.0691,25.042623410034178,22.7709,25.042623410034178,22.7709,25.042623410034178C22.7709,25.042623410034178,22.7709,16.62732341003418,22.7709,16.62732341003418C22.7709,16.16764341003418,22.3996,15.796403410034179,21.9399,15.796403410034179C21.9399,15.796403410034179,17.9798,15.796403410034179,17.9798,15.796403410034179C17.5201,15.796403410034179,17.1489,16.16764341003418,17.1489,16.62732341003418C17.1489,16.62732341003418,17.1489,25.042623410034178,17.1489,25.042623410034178C17.1489,25.042623410034178,14.8682,25.042623410034178,14.8682,25.042623410034178C14.8682,25.042623410034178,14.8682,12.68485341003418,14.8682,12.68485341003418C14.8682,12.22517341003418,14.497,11.85392341003418,14.0373,11.85392341003418C14.0373,11.85392341003418,10.0772,11.85392341003418,10.0772,11.85392341003418C9.6175,11.85392341003418,9.24624,12.22517341003418,9.24624,12.68485341003418C9.24624,12.68485341003418,9.24624,25.042623410034178,9.24624,25.042623410034178C9.24624,25.042623410034178,6.94794,25.042623410034178,6.94794,25.042623410034178C6.94794,25.042623410034178,6.94794,20.58752341003418,6.94794,20.58752341003418C6.94794,20.127823410034182,6.57668,19.75652341003418,6.11702,19.75652341003418C6.11702,19.75652341003418,2.15687,19.75652341003418,2.15687,19.75652341003418C1.69721,19.75652341003418,1.32594,20.127823410034182,1.32594,20.58752341003418C1.32594,20.58752341003418,1.32594,25.042623410034178,1.32594,25.042623410034178C1.32594,25.042623410034178,0.830925,25.042623410034178,0.830925,25.042623410034178C0.371265,25.042623410034178,0,25.41392341003418,0,25.87352341003418C0,26.33322341003418,0.371265,26.70452341003418,0.830925,26.70452341003418C0.830925,26.70452341003418,31.1685,26.70452341003418,31.1685,26.70452341003418C31.6282,26.70452341003418,31.9994,26.33322341003418,31.9994,25.87352341003418C32.0171,25.41392341003418,31.6458,25.042623410034178,31.1862,25.042623410034178C31.1862,25.042623410034178,31.1862,25.042623410034178,31.1862,25.042623410034178ZM2.98779,25.042623410034178C2.98779,25.042623410034178,2.98779,21.41842341003418,2.98779,21.41842341003418C2.98779,21.41842341003418,5.28609,21.41842341003418,5.28609,21.41842341003418C5.28609,21.41842341003418,5.28609,25.042623410034178,5.28609,25.042623410034178C5.28609,25.042623410034178,2.98779,25.042623410034178,2.98779,25.042623410034178C2.98779,25.042623410034178,2.98779,25.042623410034178,2.98779,25.042623410034178ZM10.9081,25.042623410034178C10.9081,25.042623410034178,10.9081,13.49809341003418,10.9081,13.49809341003418C10.9081,13.49809341003418,13.2064,13.49809341003418,13.2064,13.49809341003418C13.2064,13.49809341003418,13.2064,25.042623410034178,13.2064,25.042623410034178C13.2064,25.042623410034178,10.9081,25.042623410034178,10.9081,25.042623410034178C10.9081,25.042623410034178,10.9081,25.042623410034178,10.9081,25.042623410034178ZM18.8284,25.042623410034178C18.8284,25.042623410034178,18.8284,17.45822341003418,18.8284,17.45822341003418C18.8284,17.45822341003418,21.1267,17.45822341003418,21.1267,17.45822341003418C21.1267,17.45822341003418,21.1267,25.042623410034178,21.1267,25.042623410034178C21.1267,25.042623410034178,18.8284,25.042623410034178,18.8284,25.042623410034178C18.8284,25.042623410034178,18.8284,25.042623410034178,18.8284,25.042623410034178ZM26.7487,25.042623410034178C26.7487,25.042623410034178,26.7487,8.22969341003418,26.7487,8.22969341003418C26.7487,8.22969341003418,29.047,8.22969341003418,29.047,8.22969341003418C29.047,8.22969341003418,29.047,25.042623410034178,29.047,25.042623410034178C29.047,25.042623410034178,26.7487,25.042623410034178,26.7487,25.042623410034178C26.7487,25.042623410034178,26.7487,25.042623410034178,26.7487,25.042623410034178Z" fill="#0972E7" fill-opacity="1"/></g></g></svg>