<?xml version="1.0" standalone="no"?><!DOCTYPE svg PUBLIC "-//W3C//DTD SVG 1.1//EN" "http://www.w3.org/Graphics/SVG/1.1/DTD/svg11.dtd"><svg t="1665731599705" class="icon" viewBox="0 0 1024 1024" version="1.1" xmlns="http://www.w3.org/2000/svg" p-id="3382" xmlns:xlink="http://www.w3.org/1999/xlink" width="200" height="200"><path d="M765.8 298.8c97.9 66.2 160.6 180 155.6 306.1-7.7 193.5-172.4 345.5-365.9 337.8l-93-3.7C269 931.2 117 766.6 124.7 573.1c3.2-79.6 29.9-145.1 77.2-202.4" fill="#ACACEF" p-id="3383"></path><path d="M453.6 316.9s-6.4-4.8-17.3-11c-39.7-22.7-138.9-64.9-205.6 33.5-3.5 5.1-7.5 9.8-12 13.7-33.1 28.8-39.9 33.9-46.7 39-7.2 5.4 82.1 85.2 160.9 23.6s91.7-20.8 91.7-20.8-107 50.7-89.3 99.7c20.2 22.6 116.7-3.6 141.6-27.2 16.1 20.8 54.7 101.5 132.8 48 3.3-7.1 21.6-77-51.5-127.7 33 4.5 177-12.7 164.1-60.7-26.6-17.3-132.9-103.2-227.3-46-14.2 8.4-28.1 20.2-41.4 35.9z" fill="#9E9AEA" p-id="3384"></path><path d="M202.8 376.6c-47.3 57.3-74 122.9-77.2 202.4-7.8 193.6 144.2 358.2 337.8 366l93 3.7c43.6 1.7 85.7-4.6 124.8-17.7l-49.8-2c-193.5-7.7-345.5-172.4-337.8-365.9 3.2-79.6 29.9-145.1 77.2-202.4" fill="#9E9AEA" p-id="3385"></path><path d="M482.5 242.8s-7.4-5.5-20.1-12.8c-46-26.3-160.8-75.1-238 38.8-4 6-8.7 11.3-14 15.9-38.4 33.4-46.2 39.3-54 45.1-8.4 6.3 95 98.6 186.3 27.3S449 333 449 333s-123.9 58.7-103.4 115.4c23.3 26.2 135.1-4.2 164-31.5 18.6 24.1 63.4 117.5 153.7 55.6 3.8-8.2 25.1-89.1-59.6-147.9 38.2 5.2 205-14.7 190.1-70.3C763 234.2 640 134.8 530.6 201c-16.5 9.9-32.6 23.6-48.1 41.8z" fill="#BFE5BD" p-id="3386"></path><path d="M234.1 318.9c5.3-4.6 9.9-10 14-15.9 77.2-113.9 192.1-65.1 238-38.8 12.6 7.2 20.1 12.8 20.1 12.8 15.4-18.2 31.5-31.9 47.9-41.8 88-53.2 184.8 0.7 235.3 34.3 3.4-6 4.5-12.5 2.6-19.6-30.8-20.1-153.8-119.5-263.2-53.3-16.4 9.9-32.5 23.6-47.9 41.8 0 0-7.4-5.5-20.1-12.8-46-26.3-160.8-75.1-238 38.8-4 6-8.7 11.3-14 15.9-38.4 33.4-46.2 39.3-54 45.1-3.3 2.5 10.6 18.1 34.1 31.9 7.3-5.9 19.3-15.9 45.2-38.4zM472.6 367.2s-14.9-47.2-106.2 24.1c-4.8 3.8-9.7 7.1-14.6 10-9.1 13.7-13.2 28.2-8 42.6 5.1 5.7 14.4 8.8 26.2 9.7 17.4-46 102.6-86.4 102.6-86.4z" fill="#A9D8A4" p-id="3387"></path><path d="M477.4 337.9s-37.9-110.2 35.9-256.3c39.9 12.8 63.9 23.1 63.9 23.1s-83.8 46.1-73.8 238.3l-26-5.1z" fill="#8CC983" p-id="3388"></path><path d="M884.4 422.8c-25.1-48.3-61-90.8-104.3-123.8 2.6-2.1 4.9-4.4 7-6.7 10.4-11.8 13.9-25.4 10.1-39.4l-1.5-5.5-4.8-3.1c-2.9-1.9-6.9-4.7-11.5-8-40-28.5-139.5-99.2-238.2-60.1 2.5-5.9 5.1-11.2 7.5-15.9 16.9-31.6 34.9-43 36.2-43.7 5.1-2.7 8-8 7.8-13.8-0.2-5.8-3.9-10.9-9.2-13.1-1-0.4-25.1-10.7-65.2-23.6-7-2.3-14.6 0.9-18 7.5-27.6 54.6-39.8 104.2-44.6 144.1-21.3-11.9-54.1-26.8-91.4-31.8-66.8-8.9-123.3 17.7-163.5 76.9-3.4 5-7.2 9.4-11.4 13-37.9 33-45.7 38.8-53.2 44.5-4.7 3.6-7.1 9.3-6.3 15.3 0.4 2.9 1.5 11.7 21.7 27.8 5.1 4.1 10.8 8 16.7 11.7-44 58.3-66.9 123.2-69.9 197.8-2 49.3 5.9 97.6 23.3 143.6 16.8 44.4 41.7 84.7 74.1 119.8 32.4 35.1 70.6 63.2 113.5 83.4 44.5 21 92 32.7 141.3 34.6l93 3.7c5 0.2 9.9 0.3 14.8 0.3 44.2 0 87.4-7.9 128.8-23.6 44.4-16.8 84.7-41.7 119.8-74.1 35.1-32.4 63.2-70.6 83.4-113.5 21-44.5 32.7-92 34.6-141.3 2.8-63.4-11.3-126.7-40.6-183zM521.6 98.7c10.7 3.6 19.9 6.8 27.4 9.6-24.8 26.5-61.8 86.3-60.9 206.8-2.3-12.1-4.8-30.4-4.9-53.4 0-37.7 6.8-95.8 38.4-163zM209.4 298.4c6.1-5.3 11.7-11.6 16.5-18.8 75-110.6 187.7-53.9 227.5-28.6-0.1 4.3-0.2 8.4-0.2 12.3 0.3 47.7 10.1 76.9 10.5 78.2 1.7 5.1 6 8.8 11.3 9.8l25.9 5.1c1 0.2 1.9 0.3 2.9 0.3 3.6 0 7.1-1.3 9.8-3.7 3.5-3 5.4-7.5 5.2-12.1-2.7-52.6 1.9-93.4 9.3-124.5 90.6-57.7 190.7 13.5 233.9 44.2 2.3 1.6 4.5 3.2 6.5 4.6-0.4 2-1.4 4.4-3.9 7.2-11.4 12.9-41.7 24.8-83.2 32.7-36.2 6.9-72.5 9-86.7 7l-62-8.5 51.4 35.7c31.7 22 50.8 49.6 56.6 81.8 3.6 20 0.9 36.8-1 44.1-20.1 12.8-38.8 17.7-55.5 14.5-30.6-5.9-51.5-37-65.3-57.6-3.2-4.7-5.9-8.8-8.4-12.1l-10.2-13-12 11.4c-18.1 17.1-83.5 39-123.2 37.3-9.9-0.4-14.9-2.2-17.3-3.5-6.1-32.7 61.5-76.6 96.7-93.3l11.8-5.6-3.9-12.5c-0.6-1.8-6.1-17.7-25.4-23.7-25.3-7.9-59.5 5.4-104.4 40.5-26.4 20.6-56.3 27.9-88.9 21.5-30.8-6-56.4-23-68.1-33.5 7.7-6.2 19.9-16.5 43.8-37.2z m685.9 306.2c-7.2 181.2-156.9 323.7-336.7 323.7-4.5 0-9.1-0.1-13.6-0.3l-93-3.7C266.2 916.9 121.1 759.7 128.6 574c2.8-70 24.8-130.7 67.1-185.1h0.1c51.9 21.3 103.5 15.1 145.3-17.6 32.7-25.6 53.1-33.7 64.9-35.7-10.8 6.4-23.8 14.6-36.5 24.3-17.9 13.7-31.3 27.4-40 40.8-15.4 23.7-13.4 43.1-9 55.2l1 2.7 1.9 2.2c8.1 9.1 21.7 14.1 40.4 14.9 1.8 0.1 3.6 0.1 5.4 0.1 38.6 0 94.8-16.2 125.8-35.3 15.7 23.4 41.6 60.7 83.5 68.7 5.3 1 10.6 1.5 16 1.5 21.3 0 43.5-7.9 66.3-23.5l3.4-2.3 1.7-3.7c2.9-6.2 10.1-31.3 4.6-63.8-3.5-21-13.2-48.9-37.9-75.7 17.1-1.3 36.2-3.8 54.4-7.2 20.4-3.9 44.6-9.9 65.1-18.9 94.4 66.6 147.8 174.1 143.2 289z" fill="#333333" p-id="3389"></path><path d="M721 687c-8.3-0.5-15.4 5.8-15.9 14.1-2.8 46.4-58.9 48.9-61.4 49-8.3 0.2-14.8 7.1-14.5 15.4 0.2 8.1 6.9 14.6 15 14.6h0.4c0.9 0 21.2-0.7 42.2-9.9 29.7-13.1 46.4-36.3 48.3-67.3 0.5-8.3-5.8-15.4-14.1-15.9z" fill="#333333" p-id="3390"></path><path d="M730.8 648.4m-16.1 0a16.1 16.1 0 1 0 32.2 0 16.1 16.1 0 1 0-32.2 0Z" fill="#3A3D3D" p-id="3391"></path></svg>